<?xml version="1.0" encoding="UTF-8"?>
<svg width="349px" height="8px" viewBox="0 0 349 8" version="1.1" xmlns="http://www.w3.org/2000/svg" xmlns:xlink="http://www.w3.org/1999/xlink">
    <!-- Generator: Sketch 40.3 (33839) - http://www.bohemiancoding.com/sketch -->
    <title>Line</title>
    <desc>Created with Sketch.</desc>
    <defs></defs>
    <g id="Page-1" stroke="none" stroke-width="1" fill="none" fill-rule="evenodd" stroke-linecap="square">
        <g id="Desktop-HD" transform="translate(-298.000000, -945.000000)" stroke="#979797">
            <path d="M298,946 C302.011984,946.181641 304.224605,952.026367 310.44921,952.026367 C316.673815,952.026367 317.776827,946.242188 322.89842,946 C328.121594,946.242188 329.224605,952.026367 335.44921,952.026367 C341.673815,952.026367 343.886436,946.181641 347.89842,946 C352.011984,946.181641 354.224605,952.026367 360.44921,952.026367 C366.673815,952.026367 367.776827,946.242188 372.89842,946 C378.121594,946.242188 379.224605,952.026367 385.44921,952.026367 C391.673815,952.026367 393.886436,946.181641 397.89842,946 C402.011984,946.181641 404.224605,952.026367 410.44921,952.026367 C416.673815,952.026367 417.776827,946.242188 422.89842,946 C428.121594,946.242188 429.224605,952.026367 435.44921,952.026367 C441.673815,952.026367 443.886436,946.181641 447.89842,946 C452.011984,946.181641 454.224605,952.026367 460.44921,952.026367 C466.673815,952.026367 467.776827,946.242188 472.89842,946 C478.121594,946.242188 479.224605,952.026367 485.44921,952.026367 C491.673815,952.026367 493.886436,946.181641 497.89842,946 C501.011984,946.181641 503.224605,952.026367 509.44921,952.026367 C515.673815,952.026367 516.776827,946.242188 521.89842,946 C527.121594,946.242188 528.224605,952.026367 534.44921,952.026367 C540.673815,952.026367 542.886436,946.181641 546.89842,946 C551.011984,946.181641 553.224605,952.026367 559.44921,952.026367 C565.673815,952.026367 566.776827,946.242188 571.89842,946 C577.121594,946.242188 578.224605,952.026367 584.44921,952.026367 C590.673815,952.026367 592.886436,946.181641 596.89842,946 C601.011984,946.181641 603.224605,952.026367 609.44921,952.026367 C615.673815,952.026367 616.776827,946.242188 621.89842,946 C627.121594,946.242188 628.224605,952.026367 634.44921,952.026367 C640.673815,952.026367 642.886436,946.181641 646.89842,946" id="Line"></path>
        </g>
    </g>
</svg>